<svg aria-hidden="true" style="position: absolute; width: 0; height: 0; overflow: hidden;" version="1.1" xmlns="http://www.w3.org/2000/svg" xmlns:xlink="http://www.w3.org/1999/xlink">
<defs>
<symbol id="icon-send" viewBox="0 0 32 32">
<path d="M32.010 0l-32.010 18.006 10.23 3.788 15.778-14.791-12.001 16.192 0.009 0.003-0.012-0.003v8.816l5.736-6.693 7.269 2.692 5-28.009z"></path>
</symbol>
<symbol id="icon-mail" viewBox="0 0 43 32">
<path d="M37.337 0.011h-32.003c-2.2 0-3.982 1.8-3.982 4l-0.019 24.002c0 2.2 1.8 4 4 4h32.003c2.2 0 4-1.8 4-4v-24.002c0-2.2-1.8-4-4-4zM36.536 8.513l-14.14 8.838c-0.302 0.188-0.668 0.3-1.060 0.3s-0.759-0.112-1.069-0.305l0.009 0.005-14.143-8.841c-0.503-0.301-0.835-0.843-0.835-1.463 0-0.938 0.761-1.699 1.699-1.699 0.349 0 0.673 0.105 0.943 0.285l-0.006-0.004 13.401 8.382 13.401-8.382c0.264-0.176 0.588-0.282 0.937-0.282 0.938 0 1.699 0.761 1.699 1.699 0 0.62-0.332 1.162-0.828 1.459l-0.008 0.004z"></path>
</symbol>
<symbol id="icon-phone" viewBox="0 0 32 32">
<path d="M27.43 20.861l-4.203-0.48c-0.116-0.014-0.25-0.023-0.386-0.023-0.909 0-1.733 0.369-2.329 0.965l-3.046 3.046c-4.719-2.436-8.47-6.187-10.839-10.768l-0.065-0.139 3.064-3.057c0.596-0.596 0.965-1.419 0.965-2.329 0-0.136-0.008-0.27-0.024-0.401l0.002 0.016-0.48-4.171c-0.199-1.656-1.595-2.927-3.289-2.927-0.001 0-0.003 0-0.004 0h-2.863c-1.87-0.005-3.425 1.55-3.311 3.418 0.878 14.131 12.181 25.418 26.296 26.296 1.868 0.114 3.425-1.441 3.425-3.311v-2.863c0-0.005 0-0.010 0-0.016 0-1.682-1.267-3.068-2.898-3.257l-0.015-0.001z"></path>
</symbol>
<symbol id="icon-name" viewBox="0 0 32 32">
<path d="M16.013 16.013c4.422 0 8.006-3.585 8.006-8.006s-3.585-8.006-8.006-8.006v0c-4.422 0-8.006 3.585-8.006 8.006s3.585 8.006 8.006 8.006v0zM16.013 20.016c-5.343 0-16.013 2.682-16.013 8.006v2.002c0 1.1 0.902 2.002 2.002 2.002h28.022c1.1 0 2.002-0.902 2.002-2.002v-2.002c0-5.324-10.67-8.006-16.013-8.006z"></path>
</symbol>
<symbol id="icon-menu_40px" viewBox="0 0 32 32">
<path d="M6.401 11.736v-2.134h19.204v2.134h-19.204zM6.401 17.070h19.204v-2.133h-19.204v2.133zM6.401 22.405h19.204v-2.134h-19.204v2.134z"></path>
</symbol>
<symbol id="icon-close_40px" viewBox="0 0 32 32">
<path d="M23.739 10.306l-1.504-1.504-5.965 5.964-5.964-5.964-1.504 1.504 5.964 5.964-5.964 5.965 1.504 1.504 5.964-5.965 5.965 5.965 1.504-1.504-5.965-5.965 5.965-5.964z"></path>
</symbol>
</defs>
</svg>
